<svg width="455" height="280" viewBox="0 0 455 280" fill="none" xmlns="http://www.w3.org/2000/svg">
<path d="M136.492 183.6C136.492 172.4 134.759 164.4 131.292 159.6C127.826 154.533 123.026 151.333 116.892 150C111.026 148.667 104.492 148.133 97.2922 148.4L86.8922 148.8V214.4C86.8922 221.6 86.7589 228.4 86.4922 234.8C86.2255 241.2 85.8255 246.133 85.2922 249.6H138.892C146.892 249.6 154.626 247.867 162.092 244.4C169.559 240.667 175.692 234.667 180.492 226.4C185.292 217.867 187.692 206.4 187.692 192H213.692L211.692 280H0.492188V253.6C6.62552 253.333 11.6922 252.533 15.6922 251.2C19.9589 249.867 23.1589 246.8 25.2922 242C27.6922 237.2 28.8922 229.467 28.8922 218.8V65.6C28.8922 58.4 29.0255 51.4667 29.2922 44.8C29.8255 38.1333 30.2255 33.0667 30.4922 29.6C26.2255 29.8667 20.8922 30.1333 14.4922 30.4C8.09219 30.4 3.42552 30.5333 0.492188 30.8V-1.90735e-05H200.492L202.892 77.6H176.492C176.492 62.9333 173.959 51.8666 168.892 44.4C163.826 36.9333 157.559 32 150.092 29.6C142.626 26.9333 135.292 25.7333 128.092 26L113.692 26.4C108.092 26.4 103.292 27.2 99.2922 28.8C95.2922 30.1333 92.2255 33.3333 90.0922 38.4C87.9589 43.2 86.8922 50.8 86.8922 61.2V121.2H133.692L132.092 86.4H162.892V183.6H136.492ZM246.102 280V250C266.102 219.6 285.968 189.2 305.702 158.8C325.702 128.4 345.702 98 365.702 67.6C370.768 59.8667 375.435 52.9333 379.702 46.8C383.968 40.4 388.635 34.2667 393.702 28.4L325.302 26C310.635 25.4667 298.502 29.8667 288.902 39.2C279.302 48.2667 274.502 63.6 274.502 85.2H248.102L250.502 -1.90735e-05H454.102V30L338.902 204.4C333.302 212.667 327.702 220.933 322.102 229.2C316.502 237.2 310.635 244.8 304.502 252L377.702 253.6C392.635 253.867 404.768 249.6 414.102 240.8C423.435 231.733 428.102 216.267 428.102 194.4H454.502L452.102 280H246.102Z" fill="#054E9E"/>
</svg>
