<svg width="2433" height="540" viewBox="0 0 2433 540" fill="none" xmlns="http://www.w3.org/2000/svg">
<rect y="118" width="518" height="403" rx="24" fill="#054E9E"/>
<path d="M184.982 358.785C184.982 348.895 183.487 341.88 180.497 337.74C177.737 333.37 173.597 330.725 168.077 329.805C162.787 328.655 156.347 328.195 148.757 328.425L134.612 329.115V392.94C134.612 399.15 134.497 404.9 134.267 410.19C134.037 415.25 133.692 419.275 133.232 422.265L186.017 421.92C194.067 421.92 201.427 420.425 208.097 417.435C214.767 414.215 220.172 408.925 224.312 401.565C228.452 393.975 230.522 383.74 230.522 370.86H249.497L247.772 444H66.9918V425.025C73.4318 424.795 78.3768 423.76 81.8268 421.92C85.2768 419.85 87.6918 416.4 89.0718 411.57C90.4518 406.51 91.1418 399.61 91.1418 390.87V253.215C91.1418 247.465 91.2568 241.945 91.4868 236.655C91.9468 231.365 92.2918 227.225 92.5218 224.235C88.6118 224.465 84.1268 224.695 79.0668 224.925C74.0068 224.925 69.9818 225.04 66.9918 225.27V202.5H237.077L239.147 267.36H220.172C220.172 254.25 217.987 244.475 213.617 238.035C209.477 231.365 204.072 226.88 197.402 224.58C190.732 222.28 183.832 221.245 176.702 221.475L158.762 221.82C152.552 222.05 147.722 223.085 144.272 224.925C140.822 226.765 138.292 230.1 136.682 234.93C135.302 239.53 134.612 246.43 134.612 255.63V308.415L182.912 308.76L181.187 278.745H203.957V358.785H184.982ZM278.148 444V421.575C294.018 397.885 310.923 372.585 328.863 345.675C347.033 318.535 366.698 288.635 387.858 255.975C391.768 249.765 395.563 244.015 399.243 238.725C402.923 233.435 406.948 228.26 411.318 223.2L342.663 222.165C329.553 221.935 319.088 225.96 311.268 234.24C303.678 242.52 299.883 256.205 299.883 275.295H280.563L282.633 202.5H456.858V223.89L349.218 386.73C344.388 393.86 339.788 400.53 335.418 406.74C331.048 412.72 326.448 418.355 321.618 423.645L391.653 423.99C405.453 424.22 416.723 420.31 425.463 412.26C434.203 403.98 438.573 390.295 438.573 371.205H457.548L455.478 444H278.148Z" fill="white"/>
<path d="M770.356 390.1C772.456 390.1 774.265 390.917 775.781 392.55L790.481 408.65C780.215 420.783 767.673 430.175 752.856 436.825C738.156 443.475 720.423 446.8 699.656 446.8C681.456 446.8 664.948 443.65 650.131 437.35C635.431 431.05 622.831 422.242 612.331 410.925C601.948 399.608 593.898 386.075 588.181 370.325C582.465 354.575 579.606 337.25 579.606 318.35C579.606 299.45 582.581 282.125 588.531 266.375C594.598 250.625 603.056 237.092 613.906 225.775C624.756 214.458 637.706 205.65 652.756 199.35C667.923 193.05 684.665 189.9 702.981 189.9C720.831 189.9 736.698 192.817 750.581 198.65C764.465 204.483 776.54 212.242 786.806 221.925L774.556 239.25C773.74 240.533 772.69 241.583 771.406 242.4C770.24 243.217 768.665 243.625 766.681 243.625C764.465 243.625 761.84 242.517 758.806 240.3C755.89 238.083 751.981 235.633 747.081 232.95C742.298 230.15 736.348 227.642 729.231 225.425C722.115 223.208 713.248 222.1 702.631 222.1C690.148 222.1 678.715 224.317 668.331 228.75C657.948 233.067 648.965 239.367 641.381 247.65C633.915 255.817 628.081 265.908 623.881 277.925C619.798 289.825 617.756 303.3 617.756 318.35C617.756 333.633 619.915 347.225 624.231 359.125C628.548 371.025 634.498 381.117 642.081 389.4C649.665 397.683 658.59 403.983 668.856 408.3C679.123 412.617 690.206 414.775 702.106 414.775C709.34 414.775 715.815 414.367 721.531 413.55C727.365 412.617 732.673 411.275 737.456 409.525C742.356 407.775 746.965 405.558 751.281 402.875C755.598 400.075 759.856 396.75 764.056 392.9C764.99 392.083 765.981 391.442 767.031 390.975C768.081 390.392 769.19 390.1 770.356 390.1ZM893.294 263.4C906.361 263.4 918.144 265.558 928.644 269.875C939.261 274.075 948.244 280.2 955.594 288.25C963.061 296.183 968.777 305.808 972.744 317.125C976.711 328.325 978.694 340.925 978.694 354.925C978.694 368.925 976.711 381.583 972.744 392.9C968.777 404.217 963.061 413.842 955.594 421.775C948.244 429.708 939.261 435.833 928.644 440.15C918.144 444.35 906.361 446.45 893.294 446.45C880.111 446.45 868.211 444.35 857.594 440.15C847.094 435.833 838.111 429.708 830.644 421.775C823.177 413.842 817.402 404.217 813.319 392.9C809.352 381.583 807.369 368.925 807.369 354.925C807.369 340.925 809.352 328.325 813.319 317.125C817.402 305.808 823.177 296.183 830.644 288.25C838.111 280.2 847.094 274.075 857.594 269.875C868.211 265.558 880.111 263.4 893.294 263.4ZM893.294 419.85C910.094 419.85 922.636 414.192 930.919 402.875C939.202 391.558 943.344 375.633 943.344 355.1C943.344 334.567 939.202 318.642 930.919 307.325C922.636 295.892 910.094 290.175 893.294 290.175C876.261 290.175 863.544 295.892 855.144 307.325C846.861 318.642 842.719 334.567 842.719 355.1C842.719 375.633 846.861 391.558 855.144 402.875C863.544 414.192 876.261 419.85 893.294 419.85ZM1112.34 365.075C1098.45 365.542 1086.67 366.65 1076.99 368.4C1067.3 370.033 1059.43 372.25 1053.36 375.05C1047.29 377.85 1042.92 381.175 1040.24 385.025C1037.55 388.758 1036.21 392.958 1036.21 397.625C1036.21 402.058 1036.91 405.908 1038.31 409.175C1039.83 412.325 1041.81 414.95 1044.26 417.05C1046.83 419.033 1049.8 420.492 1053.19 421.425C1056.57 422.358 1060.24 422.825 1064.21 422.825C1069.46 422.825 1074.24 422.3 1078.56 421.25C1082.99 420.2 1087.14 418.742 1090.99 416.875C1094.84 414.892 1098.51 412.5 1102.01 409.7C1105.51 406.9 1108.95 403.692 1112.34 400.075V365.075ZM1012.24 291.05C1022.15 281.6 1032.89 274.542 1044.44 269.875C1056.1 265.208 1068.88 262.875 1082.76 262.875C1092.91 262.875 1101.89 264.567 1109.71 267.95C1117.53 271.217 1124.12 275.825 1129.49 281.775C1134.85 287.725 1138.88 294.842 1141.56 303.125C1144.36 311.408 1145.76 320.567 1145.76 330.6V444H1130.54C1127.15 444 1124.59 443.475 1122.84 442.425C1121.09 441.258 1119.69 439.158 1118.64 436.125L1114.96 420.55C1110.41 424.75 1105.92 428.483 1101.49 431.75C1097.05 434.9 1092.39 437.642 1087.49 439.975C1082.7 442.192 1077.57 443.883 1072.09 445.05C1066.6 446.217 1060.54 446.8 1053.89 446.8C1046.89 446.8 1040.29 445.867 1034.11 444C1028.04 442.017 1022.74 439.042 1018.19 435.075C1013.64 431.108 1010.02 426.15 1007.34 420.2C1004.77 414.25 1003.49 407.308 1003.49 399.375C1003.49 392.375 1005.35 385.667 1009.09 379.25C1012.94 372.717 1019.12 366.883 1027.64 361.75C1036.27 356.617 1047.47 352.417 1061.24 349.15C1075.12 345.883 1092.15 344.017 1112.34 343.55V330.6C1112.34 317.183 1109.48 307.15 1103.76 300.5C1098.04 293.85 1089.64 290.525 1078.56 290.525C1071.09 290.525 1064.79 291.458 1059.66 293.325C1054.64 295.192 1050.27 297.292 1046.54 299.625C1042.92 301.842 1039.71 303.883 1036.91 305.75C1034.23 307.617 1031.43 308.55 1028.51 308.55C1026.18 308.55 1024.14 307.908 1022.39 306.625C1020.75 305.342 1019.41 303.825 1018.36 302.075L1012.24 291.05ZM1316.04 299.45C1314.99 300.733 1313.94 301.783 1312.89 302.6C1311.96 303.3 1310.56 303.65 1308.69 303.65C1306.83 303.65 1304.84 302.95 1302.74 301.55C1300.76 300.033 1298.19 298.458 1295.04 296.825C1292.01 295.075 1288.28 293.5 1283.84 292.1C1279.53 290.583 1274.16 289.825 1267.74 289.825C1259.34 289.825 1251.94 291.342 1245.52 294.375C1239.1 297.408 1233.74 301.725 1229.42 307.325C1225.22 312.925 1222.01 319.75 1219.79 327.8C1217.58 335.85 1216.47 344.892 1216.47 354.925C1216.47 365.308 1217.64 374.583 1219.97 382.75C1222.3 390.8 1225.63 397.625 1229.94 403.225C1234.26 408.708 1239.51 412.908 1245.69 415.825C1251.88 418.625 1258.76 420.025 1266.34 420.025C1273.69 420.025 1279.76 419.15 1284.54 417.4C1289.33 415.533 1293.29 413.55 1296.44 411.45C1299.59 409.35 1302.22 407.425 1304.32 405.675C1306.42 403.808 1308.58 402.875 1310.79 402.875C1313.59 402.875 1315.75 403.925 1317.27 406.025L1327.07 418.625C1322.99 423.642 1318.38 427.9 1313.24 431.4C1308.23 434.9 1302.86 437.758 1297.14 439.975C1291.43 442.192 1285.42 443.825 1279.12 444.875C1272.94 445.925 1266.64 446.45 1260.22 446.45C1249.14 446.45 1238.75 444.408 1229.07 440.325C1219.5 436.242 1211.16 430.292 1204.04 422.475C1197.04 414.658 1191.5 405.092 1187.42 393.775C1183.34 382.342 1181.29 369.392 1181.29 354.925C1181.29 341.742 1183.1 329.55 1186.72 318.35C1190.45 307.15 1195.88 297.525 1202.99 289.475C1210.23 281.308 1219.09 274.95 1229.59 270.4C1240.09 265.733 1252.11 263.4 1265.64 263.4C1278.36 263.4 1289.56 265.442 1299.24 269.525C1308.93 273.608 1317.56 279.383 1325.14 286.85L1316.04 299.45ZM1393.05 288.775C1400.52 281.192 1408.74 275.067 1417.73 270.4C1426.83 265.733 1437.27 263.4 1449.05 263.4C1458.85 263.4 1467.43 265.033 1474.78 268.3C1482.24 271.567 1488.48 276.175 1493.5 282.125C1498.52 287.958 1502.31 295.017 1504.88 303.3C1507.44 311.583 1508.73 320.742 1508.73 330.775V444H1474.43V330.775C1474.43 318.058 1471.51 308.2 1465.68 301.2C1459.84 294.083 1450.92 290.525 1438.9 290.525C1430.15 290.525 1421.93 292.625 1414.23 296.825C1406.64 300.908 1399.58 306.508 1393.05 313.625V444H1358.93V185.7H1393.05V288.775ZM1590.47 266.2V444H1556.35V266.2H1590.47ZM1596.95 211.25C1596.95 214.4 1596.31 217.433 1595.02 220.35C1593.74 223.15 1591.99 225.658 1589.77 227.875C1587.67 229.975 1585.17 231.667 1582.25 232.95C1579.33 234.117 1576.3 234.7 1573.15 234.7C1570 234.7 1567.02 234.117 1564.22 232.95C1561.42 231.667 1558.92 229.975 1556.7 227.875C1554.6 225.658 1552.91 223.15 1551.62 220.35C1550.46 217.433 1549.87 214.4 1549.87 211.25C1549.87 207.983 1550.46 204.95 1551.62 202.15C1552.91 199.233 1554.6 196.725 1556.7 194.625C1558.92 192.408 1561.42 190.717 1564.22 189.55C1567.02 188.267 1570 187.625 1573.15 187.625C1576.3 187.625 1579.33 188.267 1582.25 189.55C1585.17 190.717 1587.67 192.408 1589.77 194.625C1591.99 196.725 1593.74 199.233 1595.02 202.15C1596.31 204.95 1596.95 207.983 1596.95 211.25ZM1671.91 290.875C1675.76 286.792 1679.78 283.058 1683.98 279.675C1688.18 276.292 1692.62 273.433 1697.28 271.1C1702.07 268.65 1707.14 266.783 1712.51 265.5C1717.99 264.1 1723.82 263.4 1730.01 263.4C1739.81 263.4 1748.38 265.033 1755.73 268.3C1763.2 271.567 1769.44 276.175 1774.46 282.125C1779.47 287.958 1783.27 295.017 1785.83 303.3C1788.4 311.583 1789.68 320.742 1789.68 330.775V444H1755.38V330.775C1755.38 318.058 1752.47 308.2 1746.63 301.2C1740.8 294.083 1731.87 290.525 1719.86 290.525C1711.11 290.525 1702.88 292.625 1695.18 296.825C1687.6 300.908 1680.54 306.508 1674.01 313.625V444H1639.88V266.2H1660.36C1665.14 266.2 1668.12 268.475 1669.28 273.025L1671.91 290.875ZM1898.21 355.275C1904.27 355.275 1909.58 354.458 1914.13 352.825C1918.8 351.192 1922.65 348.917 1925.68 346C1928.83 342.967 1931.17 339.35 1932.68 335.15C1934.32 330.95 1935.13 326.342 1935.13 321.325C1935.13 311.058 1931.98 302.892 1925.68 296.825C1919.5 290.642 1910.34 287.55 1898.21 287.55C1886.19 287.55 1877.03 290.642 1870.73 296.825C1864.55 302.892 1861.46 311.058 1861.46 321.325C1861.46 326.342 1862.22 330.95 1863.73 335.15C1865.37 339.233 1867.7 342.792 1870.73 345.825C1873.88 348.742 1877.73 351.075 1882.28 352.825C1886.95 354.458 1892.26 355.275 1898.21 355.275ZM1952.63 453.275C1952.63 449.075 1951.47 445.75 1949.13 443.3C1946.8 440.733 1943.59 438.75 1939.51 437.35C1935.54 435.833 1930.87 434.783 1925.51 434.2C1920.14 433.5 1914.48 432.975 1908.53 432.625C1902.7 432.275 1896.69 431.983 1890.51 431.75C1884.32 431.4 1878.37 430.817 1872.66 430C1866.59 433.033 1861.57 436.708 1857.61 441.025C1853.76 445.342 1851.83 450.417 1851.83 456.25C1851.83 459.983 1852.77 463.483 1854.63 466.75C1856.62 470.017 1859.59 472.817 1863.56 475.15C1867.64 477.6 1872.72 479.467 1878.78 480.75C1884.97 482.15 1892.32 482.85 1900.83 482.85C1909.23 482.85 1916.64 482.092 1923.06 480.575C1929.47 479.175 1934.84 477.133 1939.16 474.45C1943.59 471.883 1946.92 468.792 1949.13 465.175C1951.47 461.558 1952.63 457.592 1952.63 453.275ZM1987.28 272.85V285.625C1987.28 289.825 1984.66 292.45 1979.41 293.5L1960.33 296.3C1961.97 299.917 1963.25 303.767 1964.18 307.85C1965.12 311.817 1965.58 316.017 1965.58 320.45C1965.58 329.2 1963.89 337.133 1960.51 344.25C1957.12 351.25 1952.46 357.258 1946.51 362.275C1940.56 367.292 1933.44 371.142 1925.16 373.825C1916.99 376.508 1908.01 377.85 1898.21 377.85C1890.16 377.85 1882.63 376.975 1875.63 375.225C1872.13 377.325 1869.45 379.658 1867.58 382.225C1865.83 384.675 1864.96 387.125 1864.96 389.575C1864.96 393.658 1866.65 396.692 1870.03 398.675C1873.53 400.658 1878.02 402.117 1883.51 403.05C1889.11 403.867 1895.47 404.392 1902.58 404.625C1909.82 404.858 1917.11 405.267 1924.46 405.85C1931.92 406.317 1939.22 407.25 1946.33 408.65C1953.57 409.933 1959.92 412.092 1965.41 415.125C1971.01 418.042 1975.5 422.125 1978.88 427.375C1982.38 432.508 1984.13 439.217 1984.13 447.5C1984.13 455.2 1982.21 462.667 1978.36 469.9C1974.62 477.133 1969.14 483.55 1961.91 489.15C1954.67 494.75 1945.87 499.242 1935.48 502.625C1925.1 506.008 1913.32 507.7 1900.13 507.7C1886.95 507.7 1875.46 506.417 1865.66 503.85C1855.97 501.283 1847.87 497.842 1841.33 493.525C1834.92 489.208 1830.07 484.192 1826.81 478.475C1823.66 472.758 1822.08 466.808 1822.08 460.625C1822.08 451.992 1824.77 444.7 1830.13 438.75C1835.5 432.683 1842.91 427.958 1852.36 424.575C1847.22 422.242 1843.14 419.092 1840.11 415.125C1837.07 411.042 1835.56 405.675 1835.56 399.025C1835.56 396.458 1836.02 393.833 1836.96 391.15C1837.89 388.35 1839.29 385.608 1841.16 382.925C1843.14 380.125 1845.53 377.5 1848.33 375.05C1851.25 372.6 1854.57 370.383 1858.31 368.4C1849.56 363.5 1842.67 357.025 1837.66 348.975C1832.64 340.808 1830.13 331.3 1830.13 320.45C1830.13 311.7 1831.82 303.825 1835.21 296.825C1838.59 289.825 1843.26 283.817 1849.21 278.8C1855.27 273.783 1862.45 269.933 1870.73 267.25C1879.13 264.567 1888.29 263.225 1898.21 263.225C1913.61 263.225 1926.85 266.433 1937.93 272.85H1987.28ZM2115.76 444V421.25C2122.29 421.25 2126.96 419.967 2129.76 417.4C2132.56 414.833 2134.31 411.217 2135.01 406.55C2135.94 401.65 2136.41 396.167 2136.41 390.1V331.3C2136.41 327.1 2136.52 322.433 2136.76 317.3C2136.99 311.933 2137.34 306.683 2137.81 301.55C2134.07 301.783 2129.64 302.017 2124.51 302.25C2119.61 302.25 2115.87 302.367 2113.31 302.6V276C2124.04 276 2133.14 275.417 2140.61 274.25C2148.07 273.083 2153.91 271.683 2158.11 270.05C2162.54 268.417 2165.57 266.9 2167.21 265.5H2184.36C2184.82 268.533 2185.06 270.75 2185.06 272.15C2185.06 273.55 2185.06 274.95 2185.06 276.35C2185.29 277.517 2185.76 279.733 2186.46 283C2191.12 279.267 2196.49 276 2202.56 273.2C2208.62 270.167 2214.69 267.833 2220.76 266.2C2226.82 264.333 2232.19 263.4 2236.86 263.4C2258.32 263.4 2273.49 269.583 2282.36 281.95C2291.46 294.083 2296.01 313.683 2296.01 340.75V387.65C2296.01 390.917 2295.89 395.583 2295.66 401.65C2295.42 407.483 2295.07 413.083 2294.61 418.45C2298.57 417.983 2302.77 417.75 2307.21 417.75C2311.64 417.517 2315.02 417.4 2317.36 417.4V444H2225.66V421.25C2232.19 421.25 2236.86 419.967 2239.66 417.4C2242.69 414.833 2244.56 411.217 2245.26 406.55C2246.19 401.65 2246.66 396.167 2246.66 390.1L2246.31 340.4C2246.31 325.233 2244.09 314.033 2239.66 306.8C2235.46 299.333 2228.22 295.6 2217.96 295.6C2212.12 295.6 2206.29 296.883 2200.46 299.45C2194.86 302.017 2190.07 305.05 2186.11 308.55C2186.11 311.817 2186.11 315.2 2186.11 318.7C2186.11 321.967 2186.11 325.233 2186.11 328.5V387.65C2186.11 390.917 2185.99 395.583 2185.76 401.65C2185.52 407.483 2185.17 413.083 2184.71 418.45C2188.44 417.983 2192.52 417.75 2196.96 417.75C2201.62 417.517 2205.12 417.4 2207.46 417.4V444H2115.76ZM2332.67 421.25C2339.2 421.25 2343.87 419.967 2346.67 417.4C2349.7 414.833 2351.57 411.217 2352.27 406.55C2352.97 401.65 2353.32 396.167 2353.32 390.1V246.25C2353.32 242.05 2353.43 237.267 2353.67 231.9C2353.9 226.3 2354.25 220.933 2354.72 215.8C2350.98 216.033 2346.55 216.267 2341.42 216.5C2336.52 216.5 2332.78 216.617 2330.22 216.85V190.25C2341.18 190.25 2350.28 189.667 2357.52 188.5C2364.98 187.333 2370.82 185.933 2375.02 184.3C2379.45 182.667 2382.48 181.15 2384.12 179.75H2403.02V387.65C2403.02 390.917 2402.9 395.583 2402.67 401.65C2402.43 407.483 2402.08 413.083 2401.62 418.45C2405.58 417.983 2409.78 417.75 2414.22 417.75C2418.65 417.517 2422.03 417.4 2424.37 417.4V444H2332.67V421.25Z" fill="black"/>
<path d="M2013.97 413.4C2013.97 408.75 2014.79 404.325 2016.44 400.125C2018.24 395.925 2020.64 392.325 2023.64 389.325C2026.64 386.325 2030.24 383.925 2034.44 382.125C2038.64 380.325 2043.14 379.425 2047.94 379.425C2052.74 379.425 2057.17 380.325 2061.22 382.125C2065.42 383.925 2069.02 386.325 2072.02 389.325C2075.17 392.325 2077.64 395.925 2079.44 400.125C2081.24 404.325 2082.14 408.75 2082.14 413.4C2082.14 418.2 2081.24 422.7 2079.44 426.9C2077.64 430.95 2075.17 434.475 2072.02 437.475C2069.02 440.475 2065.42 442.8 2061.22 444.45C2057.17 446.25 2052.74 447.15 2047.94 447.15C2043.14 447.15 2038.64 446.25 2034.44 444.45C2030.24 442.8 2026.64 440.475 2023.64 437.475C2020.64 434.475 2018.24 430.95 2016.44 426.9C2014.79 422.7 2013.97 418.2 2013.97 413.4Z" fill="#054E9E"/>
</svg>
